<svg width="16" height="16" viewBox="0 0 16 16" fill="none" xmlns="http://www.w3.org/2000/svg">
<rect x="16" y="16" width="16" height="16" rx="8" transform="rotate(180 16 16)" fill="#EB1415"/>
<g clip-path="url(#clip0_0_187)">
<path d="M7.73717 5.14199C7.76576 5.09837 7.80476 5.06255 7.85065 5.03776C7.89654 5.01297 7.94787 4.99999 8.00003 4.99999C8.05219 4.99999 8.10352 5.01297 8.14941 5.03776C8.1953 5.06255 8.2343 5.09837 8.26289 5.14199L11.6915 10.5706C11.7165 10.614 11.7297 10.6633 11.7297 10.7134C11.7297 10.7636 11.7165 10.8128 11.6915 10.8563C11.6634 10.9004 11.6245 10.9367 11.5785 10.9617C11.5325 10.9867 11.4809 10.9996 11.4286 10.9991L8.00003 9.71342L4.57146 10.9991C4.51913 10.9996 4.46754 10.9867 4.42156 10.9617C4.37558 10.9367 4.33671 10.9004 4.3086 10.8563C4.28352 10.8128 4.27032 10.7636 4.27032 10.7134C4.27032 10.6633 4.28352 10.614 4.3086 10.5706L7.73717 5.14199Z" fill="white" stroke="white" stroke-width="0.5" stroke-linecap="round" stroke-linejoin="round"/>
</g>
<defs>
<clipPath id="clip0_0_187">
<rect width="8" height="8" fill="white" transform="translate(12 12) rotate(180)"/>
</clipPath>
</defs>
</svg>
