<svg width="16" height="16" viewBox="0 0 16 16" fill="none" xmlns="http://www.w3.org/2000/svg">
<rect width="16" height="16" rx="8" fill="#EB1415"/>
<g clip-path="url(#clip0_0_181)">
<path d="M8.26283 10.858C8.23424 10.9016 8.19524 10.9375 8.14935 10.9622C8.10346 10.987 8.05213 11 7.99997 11C7.94781 11 7.89648 10.987 7.85059 10.9622C7.8047 10.9375 7.7657 10.9016 7.73711 10.858L4.30854 5.42944C4.28347 5.386 4.27026 5.33673 4.27026 5.28658C4.27026 5.23643 4.28347 5.18716 4.30854 5.14372C4.33665 5.09957 4.37552 5.0633 4.4215 5.03831C4.46748 5.01332 4.51907 5.00043 4.5714 5.00087L7.99997 6.28658L11.4285 5.00087C11.4809 5.00043 11.5325 5.01332 11.5784 5.03831C11.6244 5.0633 11.6633 5.09957 11.6914 5.14372C11.7165 5.18716 11.7297 5.23643 11.7297 5.28658C11.7297 5.33673 11.7165 5.386 11.6914 5.42944L8.26283 10.858Z" fill="white" stroke="white" stroke-width="0.5" stroke-linecap="round" stroke-linejoin="round"/>
</g>
<defs>
<clipPath id="clip0_0_181">
<rect width="8" height="8" fill="white" transform="translate(4 4)"/>
</clipPath>
</defs>
</svg>
